<svg width="103" height="56" viewBox="0 0 103 56" fill="none" xmlns="http://www.w3.org/2000/svg">
<g clip-path="url(#clip0_0_1475)">
<path d="M0.521124 45.3293C0.545593 45.4894 0.624175 45.6365 0.744001 45.7466C0.863826 45.8566 1.01779 45.923 1.18065 45.9349C1.27259 45.9374 1.36415 45.922 1.45007 45.8894C1.53599 45.8568 1.61459 45.8078 1.6814 45.7451C1.79509 45.6252 1.85651 45.4656 1.85238 45.301C1.85238 44.9821 1.67529 44.7661 1.30481 44.649L0.863099 44.5117C0.69512 44.4619 0.542953 44.37 0.421346 44.2448C0.299738 44.1195 0.212819 43.9652 0.168999 43.7969C0.125178 43.6286 0.125947 43.4519 0.171235 43.2839C0.216523 43.1159 0.304787 42.9624 0.427483 42.8382C0.629149 42.637 0.900836 42.52 1.18676 42.5112C1.44756 42.5003 1.70262 42.5892 1.89921 42.7595C2.00373 42.836 2.09026 42.9341 2.15281 43.0471C2.21537 43.16 2.25247 43.285 2.26154 43.4136V43.5246H1.73433V43.4398C1.71899 43.3091 1.65218 43.1897 1.54846 43.1077C1.44475 43.0256 1.31255 42.9875 1.18065 43.0017C1.04341 43.0022 0.911726 43.0555 0.813365 43.1504C0.715003 43.2453 0.657663 43.3744 0.653441 43.5105C0.633085 43.7789 0.797964 43.9687 1.13383 44.0797L1.56945 44.2231C1.79531 44.2788 1.9968 44.4058 2.14363 44.5849C2.29046 44.764 2.37471 44.9856 2.38368 45.2162C2.39746 45.3797 2.37241 45.5441 2.31055 45.6963C2.24869 45.8484 2.15173 45.9841 2.02745 46.0923C1.90799 46.2083 1.76518 46.2979 1.60837 46.3553C1.45157 46.4127 1.28431 46.4366 1.11755 46.4254C0.966378 46.4174 0.818285 46.38 0.681718 46.3152C0.545152 46.2504 0.422794 46.1596 0.321642 46.0479C0.112039 45.8238 -0.00178781 45.5279 0.00409275 45.2223H0.525199L0.521124 45.3293Z" fill="#FF0013"/>
<path d="M7.86954 46.3971C6.95353 46.3971 6.4962 46.0109 6.49756 45.2384V41.2919H7.00645V42.592H7.86954V43.0562H7.00645V45.1597C7.00645 45.7169 7.2955 45.9914 7.86954 45.9914V46.3971Z" fill="#FF0013"/>
<path d="M15.2668 44.7237C15.2743 44.9467 15.2363 45.1689 15.1551 45.377C15.074 45.5851 14.9513 45.7749 14.7946 45.9349C14.642 46.0936 14.4576 46.2188 14.2531 46.3022C14.0487 46.3857 13.8288 46.4256 13.6078 46.4194C13.3863 46.4252 13.1659 46.3851 12.9609 46.3016C12.7559 46.2182 12.5706 46.0933 12.417 45.9349C12.2616 45.7741 12.1402 45.5841 12.0598 45.3761C11.9794 45.1681 11.9417 44.9463 11.9488 44.7237V42.592H12.4557V44.7762C12.454 44.9268 12.4835 45.0762 12.5423 45.215C12.6011 45.3539 12.688 45.4794 12.7977 45.5836C12.9041 45.6902 13.031 45.7746 13.1708 45.8318C13.3107 45.889 13.4606 45.9179 13.6119 45.9167C13.9161 45.9125 14.2068 45.7908 14.4219 45.5775C14.6371 45.3641 14.7598 45.0759 14.764 44.7742V42.592H15.2668V44.7237Z" fill="#FF0013"/>
<path d="M23.3887 44.4754C23.3979 44.7349 23.3508 44.9933 23.2507 45.2332C23.1506 45.4732 22.9999 45.689 22.8086 45.8663C22.626 46.0519 22.406 46.1973 22.1629 46.293C21.9199 46.3886 21.6592 46.4324 21.3979 46.4214C21.1473 46.419 20.8999 46.3656 20.6709 46.2646C20.4419 46.1636 20.2362 46.017 20.0667 45.834C19.8911 45.655 19.7529 45.4433 19.66 45.2112C19.5671 44.9791 19.5213 44.7312 19.5252 44.4815C19.5223 44.2209 19.5729 43.9624 19.6741 43.7219C19.7752 43.4814 19.9247 43.2638 20.1135 43.0825C20.2916 42.8944 20.5086 42.7467 20.7496 42.6495C20.9906 42.5523 21.2499 42.5079 21.5099 42.5193C21.7747 42.5254 22.0351 42.5875 22.2738 42.7013C22.5125 42.8151 22.7239 42.9781 22.8941 43.1794V41.3041H23.3887V44.4754ZM21.404 45.9349C21.6012 45.948 21.7987 45.9165 21.9818 45.8427C22.1648 45.7689 22.3285 45.6548 22.4605 45.509C22.6018 45.369 22.7122 45.2014 22.7848 45.0169C22.8573 44.8324 22.8903 44.6349 22.8819 44.4371C22.8787 44.0592 22.7276 43.6973 22.4605 43.4277C22.3362 43.2924 22.1842 43.1849 22.0146 43.1125C21.8451 43.0401 21.6619 43.0044 21.4773 43.0078C21.2876 43.0039 21.099 43.0391 20.9238 43.1114C20.7486 43.1837 20.5905 43.2915 20.4595 43.4277C20.3238 43.5591 20.2159 43.7161 20.1421 43.8894C20.0684 44.0628 20.0303 44.2489 20.03 44.4371C20.0223 44.8215 20.1688 45.1932 20.4371 45.4706C20.557 45.6103 20.7049 45.7237 20.8713 45.8036C21.0378 45.8835 21.2192 45.9283 21.404 45.9349Z" fill="#FF0013"/>
<path d="M28.0482 42.1479H27.5535V41.2778H28.0482V42.1479ZM28.0482 46.3185H27.5535V42.592H28.0482V46.3185Z" fill="#FF0013"/>
<path d="M35.5004 45.8481C35.321 46.034 35.1036 46.1797 34.8627 46.2755C34.6219 46.3712 34.3632 46.4148 34.104 46.4032C33.8532 46.4006 33.6057 46.3469 33.3767 46.2455C33.1477 46.1441 32.9421 45.9972 32.7727 45.8138C32.597 45.6349 32.4587 45.4233 32.3658 45.1912C32.2728 44.959 32.2271 44.711 32.2313 44.4613C32.228 44.2008 32.2782 43.9424 32.379 43.7019C32.4798 43.4613 32.629 43.2437 32.8175 43.0623C32.9957 42.8739 33.213 42.7261 33.4545 42.6292C33.696 42.5323 33.9558 42.4886 34.216 42.5011C34.4677 42.5069 34.7157 42.5636 34.9446 42.6677C35.1735 42.7719 35.3786 42.9213 35.5472 43.1067C35.9055 43.4783 36.1016 43.975 36.0928 44.489C36.084 45.003 35.8712 45.4928 35.5004 45.8521V45.8481ZM34.1101 45.9127C34.307 45.9267 34.5046 45.8956 34.6874 45.8217C34.8703 45.7478 35.0335 45.6332 35.1645 45.4868C35.3061 45.3471 35.4171 45.18 35.4906 44.9959C35.5642 44.8119 35.5987 44.6147 35.592 44.4168C35.5855 44.0384 35.4324 43.677 35.1645 43.4075C35.041 43.2735 34.8902 43.167 34.7221 43.095C34.5541 43.023 34.3726 42.9871 34.1895 42.9896C33.9998 42.9845 33.8111 43.0191 33.6357 43.0911C33.4604 43.1631 33.3023 43.2709 33.1717 43.4075C33.0358 43.5387 32.9279 43.6956 32.8544 43.8691C32.781 44.0425 32.7435 44.2288 32.7442 44.4168C32.7372 44.6056 32.7677 44.7938 32.8341 44.9708C32.9005 45.1478 33.0014 45.3101 33.131 45.4484C33.2526 45.5892 33.4025 45.7032 33.5711 45.7831C33.7397 45.8631 33.9233 45.9072 34.1101 45.9127Z" fill="#FF0013"/>
<path d="M64.9348 37.8198H54.9198L38.3197 21.3555C37.9613 21.0006 37.4755 20.8013 36.9691 20.8013C36.4626 20.8013 35.9768 21.0006 35.6185 21.3555L20.4962 36.3543C20.0279 36.8189 19.472 37.1875 18.8601 37.4389C18.2481 37.6904 17.5922 37.8198 16.9299 37.8198H13.6506C12.2391 37.8326 10.8312 37.6767 9.45728 37.3555C8.94958 37.2407 8.44983 37.0938 7.96112 36.9155C6.4032 36.3717 4.96613 35.534 3.72917 34.4486C2.58429 33.4253 1.67186 32.1723 1.05239 30.7726C0.415945 29.3465 0.0588069 27.8133 0 26.2549L0.0529269 0H8.60233V11.9485H15.6495V20.0071H8.59622V25.5947C8.64812 26.1377 8.76848 26.6722 8.95448 27.1855C9.40435 28.4168 10.2858 29.6402 11.2486 30.2276C13.0256 31.3076 15.9304 30.7464 18.2082 28.6793L33.76 13.2607C34.1799 12.8431 34.6789 12.5118 35.2281 12.2858C35.7774 12.0598 36.3662 11.9434 36.9609 11.9434C37.5556 11.9434 38.1444 12.0598 38.6937 12.2858C39.243 12.5118 39.7419 12.8431 40.1619 13.2607L56.8861 29.8461L64.9348 37.8198Z" fill="#FF0013"/>
<path d="M103 12.0212H95.1549C94.4673 12.021 93.7864 12.1552 93.1511 12.416C92.5158 12.6768 91.9385 13.0592 91.4522 13.5412L76.389 28.4794C76.2115 28.6555 76.0008 28.7951 75.7689 28.8904C75.5369 28.9856 75.2884 29.0347 75.0373 29.0347C74.7863 29.0347 74.5377 28.9856 74.3058 28.8904C74.0739 28.7951 73.8632 28.6555 73.6857 28.4794L58.5634 13.4827C58.0941 13.0182 57.537 12.65 56.924 12.3992C56.311 12.1484 55.6541 12.02 54.991 12.0212H47.1072L55.1844 20.0757L71.8334 36.5824C72.2536 36.9991 72.7524 37.3298 73.3015 37.5553C73.8505 37.7809 74.439 37.8969 75.0333 37.8969C75.6276 37.8969 76.216 37.7809 76.7651 37.5553C77.3141 37.3298 77.813 36.9991 78.2332 36.5824L94.9595 19.9949L103 12.0212Z" fill="#FF0013"/>
<path d="M84.7389 30.1267L76.6984 38.1004L59.9741 54.6858C59.1249 55.5272 57.9736 55.9998 56.7732 55.9998C55.5728 55.9998 54.4215 55.5272 53.5722 54.6858L36.9233 38.1812L35.7956 37.0527L35.7752 37.0386L35.2887 36.5521C34.7528 35.8925 34.4553 35.0736 34.4439 34.2266C34.458 33.3374 34.8112 32.4865 35.4326 31.8453C36.0539 31.204 36.8971 30.82 37.7924 30.7706C37.8576 30.7706 37.9248 30.7706 37.996 30.7706C38.9286 30.7692 39.8243 31.1318 40.4896 31.78L42.1323 33.3949L55.4287 46.5809C55.787 46.9358 56.2728 47.1351 56.7793 47.1351C57.2857 47.1351 57.7715 46.9358 58.1299 46.5809L74.73 30.1166L84.7389 30.1267Z" fill="#FF0013"/>
<path d="M41.546 34.2932C41.546 35.2285 41.1714 36.1255 40.5045 36.7869C39.8376 37.4483 38.933 37.8198 37.9899 37.8198C37.1919 37.8185 36.418 37.548 35.7955 37.0527L35.7752 37.0386C35.5692 36.8767 35.3827 36.6918 35.2195 36.4875C34.7111 35.8646 34.4357 35.0865 34.4399 34.2851C34.4379 34.265 34.4379 34.2447 34.4399 34.2245C34.4539 33.3354 34.8072 32.4845 35.4285 31.8432C36.0498 31.202 36.893 30.818 37.7884 30.7686C37.8535 30.7686 37.9207 30.7686 37.9919 30.7686C38.8132 30.7656 39.61 31.0459 40.2457 31.5615C40.8815 32.0771 41.3167 32.7959 41.4768 33.5947C41.5244 33.8245 41.5476 34.0586 41.546 34.2932Z" fill="#FF0013"/>
</g>
<defs>
<clipPath id="clip0_0_1475">
<rect width="103" height="56" fill="white"/>
</clipPath>
</defs>
</svg>
